<svg viewBox="0 0 1280 720" xmlns="http://www.w3.org/2000/svg"><rect x="0" y="0" width="1280" height="31" fill="#0D1526"></rect><rect x="0" y="30" width="1280" height="31" fill="#0D1425"></rect><rect x="0" y="60" width="1280" height="31" fill="#0C1424"></rect><rect x="0" y="90" width="1280" height="31" fill="#0C1323"></rect><rect x="0" y="120" width="1280" height="31" fill="#0C1322"></rect><rect x="0" y="150" width="1280" height="31" fill="#0B1221"></rect><rect x="0" y="180" width="1280" height="31" fill="#0B1120"></rect><rect x="0" y="210" width="1280" height="31" fill="#0B111F"></rect><rect x="0" y="240" width="1280" height="31" fill="#0A101E"></rect><rect x="0" y="270" width="1280" height="31" fill="#0A101D"></rect><rect x="0" y="300" width="1280" height="31" fill="#0A0F1C"></rect><rect x="0" y="330" width="1280" height="31" fill="#090E1B"></rect><rect x="0" y="360" width="1280" height="31" fill="#090E19"></rect><rect x="0" y="390" width="1280" height="31" fill="#080D18"></rect><rect x="0" y="420" width="1280" height="31" fill="#080C17"></rect><rect x="0" y="450" width="1280" height="31" fill="#080C16"></rect><rect x="0" y="480" width="1280" height="31" fill="#070B15"></rect><rect x="0" y="510" width="1280" height="31" fill="#070B14"></rect><rect x="0" y="540" width="1280" height="31" fill="#070A13"></rect><rect x="0" y="570" width="1280" height="31" fill="#060912"></rect><rect x="0" y="600" width="1280" height="31" fill="#060911"></rect><rect x="0" y="630" width="1280" height="31" fill="#060810"></rect><rect x="0" y="660" width="1280" height="31" fill="#05080F"></rect><rect x="0" y="690" width="1280" height="31" fill="#05070E"></rect><g data-decor="true"><circle cx="200" cy="560" r="6" fill="#2DD4E6"></circle><circle cx="200" cy="560" r="12" fill="none" stroke="#2DD4E6" stroke-opacity="0.2"></circle><circle cx="200" cy="560" r="18" fill="none" stroke="#2DD4E6" stroke-opacity="0.08"></circle></g><g data-archetype="left-anchor"><rect x="0" y="0" width="512" height="720" fill="#2DD4E6"></rect><polygon points="0,720 0,520 200,720" fill="#004C38"></polygon><text x="64" y="345.5" font-family="Microsoft YaHei, PingFang SC, Helvetica Neue, sans-serif" font-size="64" font-weight="600" fill="#0A0E14" dominant-baseline="alphabetic">Atlas</text><text x="64" y="414.5" font-family="Microsoft YaHei, PingFang SC, Helvetica Neue, sans-serif" font-size="64" font-weight="600" fill="#0A0E14" dominant-baseline="alphabetic">Fulfilment</text><g transform="translate(576, 168)"><circle cx="12" cy="-12" r="12" fill="#2DD4E6"></circle><text x="48" y="0" font-family="Microsoft YaHei, PingFang SC, Helvetica Neue, sans-serif" font-size="32" fill="#F2F6FA" letter-spacing="2" dominant-baseline="alphabetic">Atlas Robotics</text></g><text x="576" y="232" font-family="Microsoft YaHei, PingFang SC, Helvetica Neue, sans-serif" font-size="30" fill="#8A94A6" font-style="italic" dominant-baseline="alphabetic">Warehouse robotics that pays for</text><text x="576" y="268" font-family="Microsoft YaHei, PingFang SC, Helvetica Neue, sans-serif" font-size="30" fill="#8A94A6" font-style="italic" dominant-baseline="alphabetic">itself in a year</text><line x1="576" y1="328" x2="1184" y2="328" stroke="#2C3140" stroke-width="1.4"></line><text x="576" y="372" font-family="Microsoft YaHei, PingFang SC, Helvetica Neue, sans-serif" font-size="26" dominant-baseline="alphabetic"><tspan fill="#8A94A6">2026-08-15</tspan></text></g></svg>