<svg viewBox="0 0 1280 720" xmlns="http://www.w3.org/2000/svg"><rect x="0" y="0" width="1280" height="720" fill="#FAFAF6"></rect><g data-decor="true"><line x1="1240" y1="40" x2="1220" y2="40" stroke="#D5D5CB" stroke-width="1"></line><line x1="1240" y1="40" x2="1240" y2="60" stroke="#D5D5CB" stroke-width="1"></line><line x1="1236" y1="44" x2="1216" y2="44" stroke="#D5D5CB" stroke-width="1"></line><line x1="1236" y1="44" x2="1236" y2="64" stroke="#D5D5CB" stroke-width="1"></line><line x1="40" y1="680" x2="60" y2="680" stroke="#D5D5CB" stroke-width="1"></line><line x1="40" y1="680" x2="40" y2="660" stroke="#D5D5CB" stroke-width="1"></line><line x1="44" y1="676" x2="64" y2="676" stroke="#D5D5CB" stroke-width="1"></line><line x1="44" y1="676" x2="44" y2="656" stroke="#D5D5CB" stroke-width="1"></line></g><g data-archetype="banner-title"><g transform="translate(96, 136)"><circle cx="12" cy="-12" r="12" fill="#00A878"></circle><text x="48" y="0" font-family="Microsoft YaHei, PingFang SC, Helvetica Neue, sans-serif" font-size="32" fill="#006A4E" letter-spacing="2" dominant-baseline="alphabetic">Harbor Advisory</text></g><g><rect x="1058" y="100" width="126" height="48" rx="4" fill="none" stroke="#006A4E" stroke-width="2"></rect><rect x="1058" y="100" width="8" height="48" fill="#00A878"></rect><text x="1128" y="131" font-family="Microsoft YaHei, PingFang SC, Helvetica Neue, sans-serif" font-size="26" fill="#006A4E" text-anchor="middle" dominant-baseline="alphabetic">Confidential</text></g><text x="96" y="362" font-family="Georgia, Songti SC, STSong, serif" font-size="84" font-weight="600" fill="#006A4E" dominant-baseline="alphabetic">Market Entry Analysis</text><rect x="96" y="402" width="96" height="8" fill="#006A4E"></rect><text x="96" y="458" font-family="Microsoft YaHei, PingFang SC, Helvetica Neue, sans-serif" font-size="34" fill="#5D6B65" font-style="italic" dominant-baseline="alphabetic">Should Harbor enter the SMB payments market</text><line x1="96" y1="523" x2="820" y2="523" stroke="#D5D5CB" stroke-width="1.4"></line><text x="96" y="571" font-family="Microsoft YaHei, PingFang SC, Helvetica Neue, sans-serif" font-size="26" dominant-baseline="alphabetic"><tspan fill="#5D6B65">2026-08-15</tspan></text></g></svg>